<svg width="55" height="55" viewBox="0 0 55 55" fill="none" xmlns="http://www.w3.org/2000/svg">
<rect x="0.25" y="0.25" width="54.5" height="54.5" rx="11.75" fill="#18181B" stroke="#242428" stroke-width="0.5"/>
<path d="M37.4746 34.8797C36.9588 33.6579 36.2103 32.5481 35.2707 31.6121C34.334 30.6734 33.2244 29.925 32.0031 29.4082C31.9922 29.4027 31.9813 29.4 31.9703 29.3945C33.6738 28.1641 34.7813 26.1598 34.7813 23.8984C34.7813 20.1523 31.7461 17.1172 28 17.1172C24.2539 17.1172 21.2188 20.1523 21.2188 23.8984C21.2188 26.1598 22.3262 28.1641 24.0297 29.3973C24.0188 29.4027 24.0078 29.4055 23.9969 29.4109C22.7719 29.9277 21.6727 30.6688 20.7293 31.6148C19.7906 32.5516 19.0422 33.6612 18.5254 34.8824C18.0177 36.078 17.7439 37.3599 17.7188 38.6586C17.718 38.6878 17.7231 38.7168 17.7338 38.744C17.7445 38.7712 17.7605 38.7959 17.7809 38.8168C17.8012 38.8377 17.8256 38.8543 17.8525 38.8657C17.8794 38.877 17.9083 38.8828 17.9375 38.8828H19.5781C19.6984 38.8828 19.7941 38.7871 19.7969 38.6695C19.8516 36.5586 20.6992 34.5816 22.1977 33.0832C23.7481 31.5328 25.807 30.6797 28 30.6797C30.193 30.6797 32.252 31.5328 33.8024 33.0832C35.3008 34.5816 36.1484 36.5586 36.2031 38.6695C36.2059 38.7898 36.3016 38.8828 36.4219 38.8828H38.0625C38.0917 38.8828 38.1206 38.877 38.1475 38.8657C38.1744 38.8543 38.1988 38.8377 38.2192 38.8168C38.2395 38.7959 38.2555 38.7712 38.2662 38.744C38.2769 38.7168 38.282 38.6878 38.2813 38.6586C38.2539 37.3516 37.9832 36.0801 37.4746 34.8797ZM28 28.6016C26.7449 28.6016 25.5637 28.1121 24.675 27.2234C23.7863 26.3348 23.2969 25.1535 23.2969 23.8984C23.2969 22.6434 23.7863 21.4621 24.675 20.5734C25.5637 19.6848 26.7449 19.1953 28 19.1953C29.2551 19.1953 30.4363 19.6848 31.325 20.5734C32.2137 21.4621 32.7031 22.6434 32.7031 23.8984C32.7031 25.1535 32.2137 26.3348 31.325 27.2234C30.4363 28.1121 29.2551 28.6016 28 28.6016Z" fill="white"/>
</svg>
