<?xml version="1.0" standalone="no"?>
<!DOCTYPE svg PUBLIC "-//W3C//DTD SVG 20010904//EN"
 "http://www.w3.org/TR/2001/REC-SVG-20010904/DTD/svg10.dtd">
<svg version="1.0" xmlns="http://www.w3.org/2000/svg"
 width="2048.000000pt" height="2048.000000pt" viewBox="0 0 2048.000000 2048.000000"
 preserveAspectRatio="xMidYMid meet">

<g transform="translate(0.000000,2048.000000) scale(0.100000,-0.100000)"
fill="#000000" stroke="none">
<path d="M10045 15424 c-22 -2 -98 -9 -170 -14 -404 -33 -864 -157 -1250 -338
-970 -453 -1704 -1277 -2033 -2282 -67 -204 -95 -321 -131 -531 -47 -276 -55
-382 -55 -674 0 -281 13 -438 55 -675 83 -473 259 -931 516 -1345 465 -747
1185 -1312 2031 -1594 1108 -369 2248 -247 3227 345 979 592 1646 1608 1804
2744 110 792 -20 1565 -382 2275 -194 381 -430 700 -739 1000 -296 288 -575
489 -928 669 -428 218 -867 351 -1332 401 -138 15 -531 27 -613 19z"/>
<path d="M9640 6539 c-489 -28 -1066 -105 -1538 -204 -1401 -296 -2622 -861
-3480 -1612 -660 -577 -1101 -1236 -1306 -1950 l-15 -52 122 -109 c1228 -1094
2684 -1873 4252 -2277 705 -182 1347 -280 2065 -316 288 -14 959 -6 1248 15
928 70 1815 257 2691 568 1027 365 2043 928 2905 1611 157 125 450 374 538
458 l57 54 -34 112 c-275 890 -913 1692 -1841 2314 -1214 812 -2759 1291
-4483 1389 -213 12 -967 11 -1181 -1z"/>
</g>
</svg>
